# xmcd
#
# Track frame offsets:
#	150
#	15168
#	29553
#	40971
#	52713
#	66288
#	81588
#	94638
#	109960
#	124813
#	136718
#	150225
#	162855
#	175024
#	189948
#	203164
#	216350
#	228658
#	241338
#	257088
#
# Disc length: 3636 seconds
# Revision: 1
# Processed by: cddbd v1.5.2PL0 Copyright (c) Steve Scherf et al.
# Submitted via: dBpowerAMP V12.0
#
DISCID=050e3214
DTITLE=Roy Clark - The Roy Clark Anthology
DYEAR=2004
DGENRE=Country
TTITLE0=Yesterday, When I Was Young
TTITLE1=Tips Of My Fingers
TTITLE2=I Never Picked Cotton
TTITLE3=Thank God And Greyhound
TTITLE4=I Have A Dream, I Have A Dream
TTITLE5=We Can't Build A Fire In The Rain
TTITLE6=Theme from Love Story
TTITLE7=September Song
TTITLE8=Right Or Left At Oak Street
TTITLE9=If I Had To Do It All Over Again
TTITLE10=Come Live With Me
TTITLE11=The Lawrence Welk-Hee Haw Counter-Revolution Polka
TTITLE12=Riders In The Sky
TTITLE13=Somewhere Between Love And Tomorrow
TTITLE14=Honeymoon Feelin'
TTITLE15=The Great Divide
TTITLE16=You're Gonna Love Yourself In The Morning
TTITLE17=Heart To Heart
TTITLE18=Me And Bobby McGee
TTITLE19=Think Summer
EXTD=
EXTT0=
EXTT1=
EXTT2=
EXTT3=
EXTT4=
EXTT5=
EXTT6=
EXTT7=
EXTT8=
EXTT9=
EXTT10=
EXTT11=
EXTT12=
EXTT13=
EXTT14=
EXTT15=
EXTT16=
EXTT17=
EXTT18=
EXTT19=
PLAYORDER=
